<svg width="1200" height="630" viewBox="0 0 1200 630" xmlns="http://www.w3.org/2000/svg">
  <defs>
    <linearGradient id="aebG1" x1="0%" y1="0%" x2="100%" y2="100%">
      <stop offset="0%" style="stop-color:#43e97b"/>
      <stop offset="100%" style="stop-color:#38f9d7"/>
    </linearGradient>
    <linearGradient id="aebG2" x1="0%" y1="0%" x2="100%" y2="100%">
      <stop offset="0%" style="stop-color:#667eea"/>
      <stop offset="100%" style="stop-color:#764ba2"/>
    </linearGradient>
  </defs>
  <rect width="1200" height="630" fill="#f8fff9"/>
  <!-- phylogenetic tree left -->
  <g transform="translate(100,120)" stroke="url(#aebG1)" stroke-width="3" fill="none" opacity="0.7">
    <line x1="40" y1="300" x2="40" y2="60"/>
    <line x1="40" y1="180" x2="160" y2="180"/>
    <line x1="40" y1="120" x2="160" y2="120"/>
    <line x1="40" y1="240" x2="160" y2="240"/>
    <line x1="160" y1="120" x2="280" y2="90"/>
    <line x1="160" y1="120" x2="280" y2="150"/>
    <line x1="160" y1="240" x2="280" y2="270"/>
  </g>
  <circle cx="140" cy="180" r="8" fill="#43e97b"/>
  <circle cx="280" cy="90" r="7" fill="#38f9d7"/>
  <circle cx="280" cy="150" r="7" fill="#38f9d7"/>
  <circle cx="280" cy="270" r="7" fill="#38f9d7"/>
  <text x="140" y="360" text-anchor="middle" fill="#43e97b" font-family="system-ui,sans-serif" font-size="16" font-weight="600">Evolution</text>
  <!-- map arrow -->
  <text x="420" y="290" fill="#888" font-size="32">=&gt;</text>
  <!-- BT right -->
  <g transform="translate(520,130)">
    <rect x="200" y="0" width="100" height="32" rx="8" fill="url(#aebG2)" opacity="0.85"/>
    <text x="250" y="22" text-anchor="middle" fill="white" font-size="12" font-family="system-ui,sans-serif">Selector</text>
    <line x1="250" y1="32" x2="250" y2="55" stroke="#667eea" stroke-width="2"/>
    <line x1="100" y1="55" x2="400" y2="55" stroke="#667eea" stroke-width="2"/>
    <rect x="60" y="55" width="80" height="28" rx="6" fill="url(#aebG2)" opacity="0.65"/>
    <rect x="210" y="55" width="80" height="28" rx="6" fill="url(#aebG2)" opacity="0.65"/>
    <rect x="360" y="55" width="80" height="28" rx="6" fill="url(#aebG2)" opacity="0.65"/>
    <line x1="100" y1="83" x2="100" y2="100" stroke="#667eea" stroke-width="2"/>
    <rect x="60" y="100" width="80" height="26" rx="5" fill="url(#aebG1)" opacity="0.7"/>
    <text x="250" y="180" text-anchor="middle" fill="#667eea" font-family="system-ui,sans-serif" font-size="16" font-weight="600">Behavior Tree</text>
  </g>
  <text x="600" y="520" text-anchor="middle" fill="#667eea" font-family="system-ui,sans-serif" font-size="18" opacity="0.6">Agent Evolution - BT Mapping</text>
</svg>
