<svg xmlns="http://www.w3.org/2000/svg" width="1200" height="630" viewBox="0 0 1200 630" role="img" aria-label="0<5@0 B5;5D>=0 B@0=A;8@C5B :>=BC@K =0 ?@>5:B>@">
  <defs>
    <linearGradient id="bg" x1="0%" y1="0%" x2="100%" y2="100%">
      <stop offset="0%" stop-color="#0f0c29"/>
      <stop offset="50%" stop-color="#302b63"/>
      <stop offset="100%" stop-color="#24243e"/>
    </linearGradient>
    <linearGradient id="glow" x1="0%" y1="0%" x2="100%" y2="0%">
      <stop offset="0%" stop-color="#667eea"/>
      <stop offset="100%" stop-color="#43e97b"/>
    </linearGradient>
    <filter id="blur"><feGaussianBlur stdDeviation="8"/></filter>
  </defs>
  <rect width="1200" height="630" fill="url(#bg)"/>
  <rect x="80" y="120" width="280" height="390" rx="28" fill="#111827" stroke="#667eea" stroke-width="3"/>
  <circle cx="220" cy="180" r="36" fill="#1f2937" stroke="#43e97b" stroke-width="2"/>
  <circle cx="220" cy="180" r="18" fill="#050508"/>
  <path d="M140 320 Q220 260 300 320 T460 320" fill="none" stroke="#43e97b" stroke-width="3" opacity="0.9"/>
  <path d="M120 380 Q220 340 320 400" fill="none" stroke="#66e0ff" stroke-width="2" opacity="0.7"/>
  <text x="220" y="470" text-anchor="middle" fill="#9ca3af" font-family="system-ui,sans-serif" font-size="22">B5;5D>= · :0<5@0</text>
  <path d="M380 315 L520 315" stroke="url(#glow)" stroke-width="4" marker-end="url(#arrow)"/>
  <polygon points="520,315 500,305 500,325" fill="#43e97b"/>
  <text x="450" y="290" text-anchor="middle" fill="#a5b4fc" font-family="system-ui,sans-serif" font-size="18">WebRTC</text>
  <rect x="540" y="90" width="580" height="420" rx="12" fill="#050508" stroke="#334155" stroke-width="2"/>
  <polygon points="580,130 1040,110 1060,470 560,450" fill="none" stroke="#667eea" stroke-width="2" stroke-dasharray="8 6"/>
  <circle cx="580" cy="130" r="10" fill="#667eea"/>
  <circle cx="1040" cy="110" r="10" fill="#667eea"/>
  <circle cx="1060" cy="470" r="10" fill="#667eea"/>
  <circle cx="560" cy="450" r="10" fill="#667eea"/>
  <path d="M620 200 Q780 160 940 220 T1080 380" fill="none" stroke="#43e97b" stroke-width="4" filter="url(#blur)" opacity="0.85"/>
  <path d="M620 200 Q780 160 940 220 T1080 380" fill="none" stroke="#66e0ff" stroke-width="2"/>
  <text x="830" y="540" text-anchor="middle" fill="#9ca3af" font-family="system-ui,sans-serif" font-size="22">?@>5:B>@ · warp C3;>2</text>
  <text x="600" y="56" fill="#e5e7eb" font-family="system-ui,sans-serif" font-size="36" font-weight="600">0<5@0 ’ ?@>5:B>@</text>
  <text x="600" y="92" fill="#94a3b8" font-family="system-ui,sans-serif" font-size="22">PoC >1@0B=>9 A2O78 2 1@0C75@5</text>
</svg>
