<?xml version="1.0" encoding="UTF-8"?>
<svg width="1200" height="630" viewBox="0 0 1200 630" xmlns="http://www.w3.org/2000/svg">
  <defs>
    <linearGradient id="cv1" x1="0%" y1="0%" x2="100%" y2="100%">
      <stop offset="0%" style="stop-color:#667eea"/>
      <stop offset="100%" style="stop-color:#764ba2"/>
    </linearGradient>
    <linearGradient id="cv2" x1="0%" y1="0%" x2="100%" y2="0%">
      <stop offset="0%" style="stop-color:#43e97b"/>
      <stop offset="100%" style="stop-color:#38f9d7"/>
    </linearGradient>
    <marker id="carr" markerWidth="10" markerHeight="7" refX="9" refY="3.5" orient="auto">
      <polygon points="0 0, 10 3.5, 0 7" fill="#667eea"/>
    </marker>
  </defs>
  <rect width="1200" height="630" fill="#fafbff"/>
  <rect x="1" y="1" width="1198" height="628" rx="4" fill="none" stroke="#e4e6f0" stroke-width="2"/>
  <circle cx="120" cy="100" r="70" fill="url(#cv1)" opacity="0.12"/>
  <circle cx="1080" cy="520" r="85" fill="url(#cv2)" opacity="0.10"/>
  <text x="600" y="62" text-anchor="middle" fill="#333" font-family="system-ui,sans-serif" font-size="28" font-weight="700">Senior vibe-coder 2 Cursor</text>
  <text x="600" y="96" text-anchor="middle" fill="#666" font-family="system-ui,sans-serif" font-size="15">:>=B@0:B ’ @568<K ’ rules ’ skills ’ verify</text>
  <rect x="80" y="130" width="1040" height="420" rx="16" fill="#fff" stroke="url(#cv1)" stroke-width="2"/>
  <!-- Pyramid tiers -->
  <polygon points="600,170 900,420 300,420" fill="#f8f9ff" stroke="#667eea" stroke-width="1.5"/>
  <line x1="380" y1="350" x2="820" y2="350" stroke="#e0e4f0" stroke-width="1"/>
  <line x1="440" y1="285" x2="760" y2="285" stroke="#e0e4f0" stroke-width="1"/>
  <text x="600" y="210" text-anchor="middle" fill="#667eea" font-family="system-ui,sans-serif" font-size="13" font-weight="700">S  ?>AB0=>2:0 8 verify</text>
  <text x="600" y="255" text-anchor="middle" fill="#555" font-family="system-ui,sans-serif" font-size="12">Plan · Ask · :>=B@0:B · B5ABK</text>
  <text x="600" y="318" text-anchor="middle" fill="#43a047" font-family="system-ui,sans-serif" font-size="13" font-weight="700">A  8=D@0AB@C:BC@0 035=B0</text>
  <text x="600" y="340" text-anchor="middle" fill="#555" font-family="system-ui,sans-serif" font-size="11">rules · skills · MCP · @context</text>
  <text x="600" y="388" text-anchor="middle" fill="#fa709a" font-family="system-ui,sans-serif" font-size="13" font-weight="700">B  >@:5AB@0F8O</text>
  <text x="600" y="410" text-anchor="middle" fill="#555" font-family="system-ui,sans-serif" font-size="11">hooks · subagents · Automations</text>
  <!-- Side labels -->
  <rect x="110" y="200" width="130" height="36" rx="8" fill="#f0f4ff" stroke="#667eea" stroke-width="1"/>
  <text x="175" y="223" text-anchor="middle" fill="#555" font-family="system-ui,sans-serif" font-size="11">Agent mode</text>
  <rect x="110" y="260" width="130" height="36" rx="8" fill="#f0fff8" stroke="#43e97b" stroke-width="1"/>
  <text x="175" y="283" text-anchor="middle" fill="#555" font-family="system-ui,sans-serif" font-size="11">.cursor/rules</text>
  <rect x="110" y="320" width="130" height="36" rx="8" fill="#fff5f8" stroke="#fa709a" stroke-width="1"/>
  <text x="175" y="343" text-anchor="middle" fill="#555" font-family="system-ui,sans-serif" font-size="11">Bugbot · CI</text>
  <rect x="960" y="200" width="130" height="36" rx="8" fill="#f0f4ff" stroke="#667eea" stroke-width="1"/>
  <text x="1025" y="223" text-anchor="middle" fill="#555" font-family="system-ui,sans-serif" font-size="11"><>45;8</text>
  <rect x="960" y="260" width="130" height="36" rx="8" fill="#f0fff8" stroke="#43e97b" stroke-width="1"/>
  <text x="1025" y="283" text-anchor="middle" fill="#555" font-family="system-ui,sans-serif" font-size="11">skills</text>
  <rect x="960" y="320" width="130" height="36" rx="8" fill="#fff5f8" stroke="#fa709a" stroke-width="1"/>
  <text x="1025" y="343" text-anchor="middle" fill="#555" font-family="system-ui,sans-serif" font-size="11">SDK · cloud</text>
  <text x="600" y="500" text-anchor="middle" fill="#999" font-family="system-ui,sans-serif" font-size="12">VAIRL · 2026</text>
</svg>
