<?xml version="1.0" encoding="UTF-8"?>
<svg width="1200" height="630" viewBox="0 0 1200 630" xmlns="http://www.w3.org/2000/svg">
  <defs>
    <linearGradient id="bg" x1="0%" y1="0%" x2="100%" y2="100%">
      <stop offset="0%" style="stop-color:#0f2744"/>
      <stop offset="55%" style="stop-color:#163a5f"/>
      <stop offset="100%" style="stop-color:#1a5a5a"/>
    </linearGradient>
    <linearGradient id="accent" x1="0%" y1="0%" x2="100%" y2="0%">
      <stop offset="0%" style="stop-color:#3ecfbf"/>
      <stop offset="100%" style="stop-color:#7ec8e3"/>
    </linearGradient>
  </defs>
  <rect width="1200" height="630" fill="url(#bg)"/>
  <circle cx="980" cy="120" r="160" fill="#3ecfbf" opacity="0.08"/>
  <circle cx="160" cy="520" r="120" fill="#7ec8e3" opacity="0.08"/>

  <!-- timeline spine -->
  <line x1="120" y1="360" x2="1080" y2="360" stroke="#3ecfbf" stroke-width="3" opacity="0.7"/>
  <circle cx="220" cy="360" r="10" fill="#3ecfbf"/>
  <circle cx="420" cy="360" r="10" fill="#5ab8d4"/>
  <circle cx="620" cy="360" r="10" fill="#7ec8e3"/>
  <circle cx="820" cy="360" r="10" fill="#a8d8ea"/>
  <circle cx="980" cy="360" r="10" fill="#d4eef7"/>

  <!-- method cards -->
  <rect x="140" y="200" width="160" height="72" rx="6" fill="#1e3a5f" stroke="#3ecfbf" stroke-width="1.5"/>
  <text x="220" y="232" text-anchor="middle" fill="#9ed9d0" font-family="Georgia,serif" font-size="13">052B8:0</text>
  <text x="220" y="254" text-anchor="middle" fill="#7aa0b8" font-family="system-ui,sans-serif" font-size="11">V 2. 4> =. M.</text>

  <rect x="340" y="420" width="160" height="72" rx="6" fill="#1e3a5f" stroke="#5ab8d4" stroke-width="1.5"/>
  <text x="420" y="452" text-anchor="middle" fill="#9ed9d0" font-family="Georgia,serif" font-size="13">>73>2>9 HBC@<</text>
  <text x="420" y="474" text-anchor="middle" fill="#7aa0b8" font-family="system-ui,sans-serif" font-size="11">1957</text>

  <rect x="540" y="200" width="160" height="72" rx="6" fill="#1e3a5f" stroke="#7ec8e3" stroke-width="1.5"/>
  <text x="620" y="232" text-anchor="middle" fill="#9ed9d0" font-family="Georgia,serif" font-size="13">  / " </text>
  <text x="620" y="254" text-anchor="middle" fill="#7aa0b8" font-family="system-ui,sans-serif" font-size="11">19561985</text>

  <rect x="740" y="420" width="160" height="72" rx="6" fill="#1e3a5f" stroke="#a8d8ea" stroke-width="1.5"/>
  <text x="820" y="452" text-anchor="middle" fill="#9ed9d0" font-family="Georgia,serif" font-size="13">>@D>;>38O</text>
  <text x="820" y="474" text-anchor="middle" fill="#7aa0b8" font-family="system-ui,sans-serif" font-size="11">1942</text>

  <rect x="900" y="200" width="160" height="72" rx="6" fill="#1e3a5f" stroke="#d4eef7" stroke-width="1.5"/>
  <text x="980" y="232" text-anchor="middle" fill="#9ed9d0" font-family="Georgia,serif" font-size="13">>=F5?B. ?@>5:B.</text>
  <text x="980" y="254" text-anchor="middle" fill="#7aa0b8" font-family="system-ui,sans-serif" font-size="11">2002</text>

  <text x="600" y="78" text-anchor="middle" fill="#e8f4f8" font-family="Georgia,serif" font-size="36" font-weight="700">5B>4K ?>8A:0 B5E=8G5A:8E @5H5=89</text>
  <text x="600" y="118" text-anchor="middle" fill="url(#accent)" font-family="system-ui,sans-serif" font-size="18">B !>:@0B0 4>  : :0B0;>3 8 B5=45=F88</text>
</svg>
