<svg width="1200" height="630" viewBox="0 0 1200 630" xmlns="http://www.w3.org/2000/svg">
  <defs>
    <linearGradient id="futureGradient" x1="0%" y1="0%" x2="100%" y2="100%">
      <stop offset="0%" style="stop-color:#43e97b;stop-opacity:1" />
      <stop offset="100%" style="stop-color:#38f9d7;stop-opacity:1" />
    </linearGradient>
    <linearGradient id="futureGradient2" x1="0%" y1="0%" x2="100%" y2="100%">
      <stop offset="0%" style="stop-color:#fa709a;stop-opacity:1" />
      <stop offset="100%" style="stop-color:#fee140;stop-opacity:1" />
    </linearGradient>
    <filter id="glow2">
      <feGaussianBlur stdDeviation="4" result="coloredBlur"/>
      <feMerge>
        <feMergeNode in="coloredBlur"/>
        <feMergeNode in="SourceGraphic"/>
      </feMerge>
    </filter>
  </defs>
  
  <!-- Background -->
  <rect width="1200" height="630" fill="#ffffff"/>
  
  <!-- Futuristic Lab Building -->
  <g transform="translate(200, 100)">
    <!-- Main structure -->
    <rect x="0" y="0" width="300" height="400" fill="url(#futureGradient)" opacity="0.15" rx="20"/>
    <rect x="20" y="20" width="260" height="360" fill="none" stroke="url(#futureGradient)" stroke-width="3" opacity="0.4" rx="15"/>
    
    <!-- Windows grid -->
    <g opacity="0.3">
      <rect x="40" y="40" width="50" height="50" fill="url(#futureGradient)" rx="5"/>
      <rect x="110" y="40" width="50" height="50" fill="url(#futureGradient)" rx="5"/>
      <rect x="180" y="40" width="50" height="50" fill="url(#futureGradient)" rx="5"/>
      <rect x="210" y="40" width="50" height="50" fill="url(#futureGradient)" rx="5"/>
      
      <rect x="40" y="110" width="50" height="50" fill="url(#futureGradient)" rx="5"/>
      <rect x="110" y="110" width="50" height="50" fill="url(#futureGradient)" rx="5"/>
      <rect x="180" y="110" width="50" height="50" fill="url(#futureGradient)" rx="5"/>
      <rect x="210" y="110" width="50" height="50" fill="url(#futureGradient)" rx="5"/>
      
      <rect x="40" y="180" width="50" height="50" fill="url(#futureGradient)" rx="5"/>
      <rect x="110" y="180" width="50" height="50" fill="url(#futureGradient)" rx="5"/>
      <rect x="180" y="180" width="50" height="50" fill="url(#futureGradient)" rx="5"/>
      <rect x="210" y="180" width="50" height="50" fill="url(#futureGradient)" rx="5"/>
    </g>
    
    <!-- Glowing top -->
    <ellipse cx="150" cy="0" rx="80" ry="30" fill="url(#futureGradient)" opacity="0.6" filter="url(#glow2)"/>
  </g>
  
  <!-- Network Nodes (Distributed Collaboration) -->
  <g transform="translate(600, 150)">
    <circle cx="0" cy="0" r="40" fill="url(#futureGradient)" opacity="0.7"/>
    <circle cx="150" cy="0" r="40" fill="url(#futureGradient2)" opacity="0.7"/>
    <circle cx="75" cy="130" r="40" fill="url(#futureGradient)" opacity="0.7"/>
    <circle cx="225" cy="130" r="40" fill="url(#futureGradient2)" opacity="0.7"/>
    
    <!-- Connections -->
    <line x1="40" y1="0" x2="110" y2="0" stroke="url(#futureGradient)" stroke-width="3" opacity="0.4"/>
    <line x1="75" y1="40" x2="75" y2="90" stroke="url(#futureGradient)" stroke-width="3" opacity="0.4"/>
    <line x1="150" y1="40" x2="185" y2="90" stroke="url(#futureGradient2)" stroke-width="3" opacity="0.4"/>
    <line x1="185" y1="90" x2="225" y2="90" stroke="url(#futureGradient2)" stroke-width="3" opacity="0.4"/>
  </g>
  
  <!-- Data Streams -->
  <g transform="translate(100, 450)">
    <path d="M 0 0 Q 200 -50 400 0 T 800 0" 
          stroke="url(#futureGradient)" stroke-width="4" fill="none" opacity="0.5" stroke-dasharray="10,5"/>
    <circle cx="0" cy="0" r="6" fill="url(#futureGradient)" opacity="0.8"/>
    <circle cx="200" cy="-25" r="6" fill="url(#futureGradient)" opacity="0.8"/>
    <circle cx="400" cy="0" r="6" fill="url(#futureGradient)" opacity="0.8"/>
    <circle cx="600" cy="-25" r="6" fill="url(#futureGradient)" opacity="0.8"/>
    <circle cx="800" cy="0" r="6" fill="url(#futureGradient)" opacity="0.8"/>
  </g>
  
  <!-- AI Brain Icon -->
  <g transform="translate(950, 200)">
    <path d="M 0 0 Q -30 -20 -20 -50 Q -10 -80 20 -80 Q 50 -80 60 -50 Q 70 -20 40 0 Q 20 20 0 0" 
          fill="url(#futureGradient)" opacity="0.6"/>
    <path d="M 20 -40 Q 10 -50 0 -40 Q -10 -50 -20 -40" 
          stroke="url(#futureGradient)" stroke-width="2" fill="none" opacity="0.8"/>
    <path d="M 40 -40 Q 30 -50 20 -40" 
          stroke="url(#futureGradient)" stroke-width="2" fill="none" opacity="0.8"/>
  </g>
  
  <!-- Title Text Area -->
  <rect x="50" y="450" width="1100" height="120" fill="rgba(255,255,255,0.85)" rx="10"/>
</svg>

