<svg xmlns="http://www.w3.org/2000/svg" viewBox="0 0 1200 630" role="img" aria-label="@0485=B=K9 A?CA: 2 3D">
  <defs>
    <linearGradient id="bg" x1="0" y1="0" x2="1" y2="1">
      <stop offset="0%" stop-color="#0a0a12"/>
      <stop offset="100%" stop-color="#141428"/>
    </linearGradient>
    <linearGradient id="surf" x1="0" y1="0" x2="1" y2="1">
      <stop offset="0%" stop-color="#5eead4"/>
      <stop offset="50%" stop-color="#3b82f6"/>
      <stop offset="100%" stop-color="#312e81"/>
    </linearGradient>
    <filter id="glow" x="-20%" y="-20%" width="140%" height="140%">
      <feGaussianBlur stdDeviation="4" result="b"/>
      <feMerge><feMergeNode in="b"/><feMergeNode in="SourceGraphic"/></feMerge>
    </filter>
  </defs>
  <rect width="1200" height="630" fill="url(#bg)"/>
  <g opacity="0.25" stroke="#4a5568" stroke-width="1">
    <path d="M80 520 H1120 M200 520 V120 M400 520 V120 M600 520 V120 M800 520 V120 M1000 520 V120"/>
    <path d="M80 520 Q300 420 520 360 T960 220"/>
  </g>
  <path d="M140 500 C260 460 340 380 460 340 C580 300 700 260 820 200 C900 160 980 130 1060 110" fill="none" stroke="#f59e0b" stroke-width="4" stroke-linecap="round" opacity="0.9"/>
  <ellipse cx="600" cy="430" rx="380" ry="90" fill="#1e293b" opacity="0.5"/>
  <path d="M220 430 C360 360 480 300 600 280 C720 260 860 220 980 170 L1060 110 L980 150 C860 200 720 250 600 270 C480 290 360 350 220 430 Z" fill="url(#surf)" opacity="0.92"/>
  <circle cx="820" cy="205" r="16" fill="#ef4444" filter="url(#glow)"/>
  <path d="M820 205 L760 235" stroke="#60a5fa" stroke-width="6" marker-end="url(#arrow)"/>
  <defs>
    <marker id="arrow" markerWidth="8" markerHeight="8" refX="6" refY="3" orient="auto">
      <path d="M0,0 L6,3 L0,6 Z" fill="#60a5fa"/>
    </marker>
  </defs>
  <text x="72" y="88" fill="#e2e8f0" font-family="system-ui,sans-serif" font-size="42" font-weight="700">@0485=B=K9 A?CA: 2 3D</text>
  <text x="72" y="132" fill="#94a3b8" font-family="ui-monospace,monospace" font-size="22">x<tspan baseline-shift="sub" font-size="16">k+1</tspan> = x<tspan baseline-shift="sub" font-size="16">k</tspan>  ±f(x<tspan baseline-shift="sub" font-size="16">k</tspan>) · WebXR</text>
</svg>
