<svg width="1200" height="630" viewBox="0 0 1200 630" xmlns="http://www.w3.org/2000/svg">
  <defs>
    <linearGradient id="hybG1" x1="0%" y1="0%" x2="100%" y2="100%">
      <stop offset="0%" style="stop-color:#667eea"/>
      <stop offset="100%" style="stop-color:#764ba2"/>
    </linearGradient>
    <linearGradient id="hybG2" x1="0%" y1="0%" x2="100%" y2="100%">
      <stop offset="0%" style="stop-color:#43e97b"/>
      <stop offset="100%" style="stop-color:#38f9d7"/>
    </linearGradient>
    <linearGradient id="hybG3" x1="0%" y1="0%" x2="100%" y2="100%">
      <stop offset="0%" style="stop-color:#fa709a"/>
      <stop offset="100%" style="stop-color:#fee140"/>
    </linearGradient>
  </defs>
  <rect width="1200" height="630" fill="#fafbff"/>
  <!-- DAG -->
  <g transform="translate(120,140)">
    <text x="0" y="0" fill="#667eea" font-family="system-ui,sans-serif" font-size="18" font-weight="600">DAG</text>
    <circle cx="80" cy="60" r="22" fill="url(#hybG1)" opacity="0.85"/>
    <circle cx="200" cy="30" r="18" fill="url(#hybG1)" opacity="0.7"/>
    <circle cx="200" cy="100" r="18" fill="url(#hybG1)" opacity="0.7"/>
    <circle cx="320" cy="60" r="22" fill="url(#hybG1)" opacity="0.85"/>
    <line x1="102" y1="60" x2="178" y2="35" stroke="#667eea" stroke-width="2" opacity="0.5"/>
    <line x1="102" y1="60" x2="178" y2="95" stroke="#667eea" stroke-width="2" opacity="0.5"/>
    <line x1="218" y1="35" x2="298" y2="55" stroke="#667eea" stroke-width="2" opacity="0.5"/>
    <line x1="218" y1="95" x2="298" y2="65" stroke="#667eea" stroke-width="2" opacity="0.5"/>
  </g>
  <!-- FSM -->
  <g transform="translate(480,120)">
    <text x="0" y="0" fill="#43e97b" font-family="system-ui,sans-serif" font-size="18" font-weight="600">FSM</text>
    <circle cx="100" cy="80" r="55" fill="none" stroke="url(#hybG2)" stroke-width="3" opacity="0.6"/>
    <circle cx="60" cy="60" r="20" fill="url(#hybG2)" opacity="0.85"/>
    <circle cx="140" cy="60" r="20" fill="url(#hybG2)" opacity="0.75"/>
    <circle cx="100" cy="120" r="20" fill="url(#hybG2)" opacity="0.75"/>
    <path d="M78 60 L112 60" stroke="#38f9d7" stroke-width="2" marker-end="url(#a)"/>
    <path d="M130 72 Q150 100 120 108" stroke="#38f9d7" stroke-width="2" fill="none"/>
    <path d="M80 108 Q50 100 68 72" stroke="#38f9d7" stroke-width="2" fill="none"/>
  </g>
  <!-- Behavior Tree -->
  <g transform="translate(820,130)">
    <text x="0" y="0" fill="#fa709a" font-family="system-ui,sans-serif" font-size="18" font-weight="600">BT</text>
    <rect x="60" y="20" width="80" height="28" rx="6" fill="url(#hybG3)" opacity="0.85"/>
    <line x1="100" y1="48" x2="100" y2="68" stroke="#fa709a" stroke-width="2"/>
    <line x1="40" y1="68" x2="160" y2="68" stroke="#fa709a" stroke-width="2"/>
    <rect x="10" y="68" width="60" height="24" rx="5" fill="url(#hybG3)" opacity="0.7"/>
    <rect x="70" y="68" width="60" height="24" rx="5" fill="url(#hybG3)" opacity="0.7"/>
    <rect x="130" y="68" width="60" height="24" rx="5" fill="url(#hybG3)" opacity="0.7"/>
    <line x1="40" y1="92" x2="40" y2="108" stroke="#fa709a" stroke-width="2"/>
    <rect x="10" y="108" width="60" height="22" rx="4" fill="url(#hybG3)" opacity="0.55"/>
  </g>
  <text x="600" y="520" text-anchor="middle" fill="#667eea" font-family="system-ui,sans-serif" font-size="22" opacity="0.7">Hybrid Orchestrator - DAG + FSM + Behavior Tree</text>
</svg>
