<svg width="1200" height="630" viewBox="0 0 1200 630" xmlns="http://www.w3.org/2000/svg">
  <defs>
    <linearGradient id="hypG1" x1="0%" y1="0%" x2="100%" y2="100%">
      <stop offset="0%" style="stop-color:#667eea"/>
      <stop offset="100%" style="stop-color:#764ba2"/>
    </linearGradient>
    <linearGradient id="hypG2" x1="0%" y1="0%" x2="100%" y2="100%">
      <stop offset="0%" style="stop-color:#43e97b"/>
      <stop offset="100%" style="stop-color:#38f9d7"/>
    </linearGradient>
  </defs>
  <rect width="1200" height="630" fill="#f8f9ff"/>
  <!-- LLM box -->
  <rect x="80" y="180" width="220" height="140" rx="14" fill="url(#hypG1)" opacity="0.2" stroke="url(#hypG1)" stroke-width="2"/>
  <text x="190" y="240" text-anchor="middle" fill="#667eea" font-family="monospace" font-size="20" font-weight="600">Local LLM</text>
  <text x="190" y="270" text-anchor="middle" fill="#764ba2" font-family="system-ui,sans-serif" font-size="14">hypothesis JSON</text>
  <!-- arrows to hypothesis cloud -->
  <g stroke="url(#hypG1)" stroke-width="2" opacity="0.45" fill="none">
    <path d="M300 250 L420 200"/><path d="M300 250 L420 250"/><path d="M300 250 L420 300"/>
  </g>
  <!-- hypothesis nodes -->
  <g transform="translate(440,120)">
    <circle cx="0" cy="80" r="28" fill="url(#hypG2)" opacity="0.8"/>
    <circle cx="120" cy="40" r="24" fill="url(#hypG2)" opacity="0.65"/>
    <circle cx="120" cy="130" r="24" fill="url(#hypG2)" opacity="0.65"/>
    <circle cx="240" cy="80" r="28" fill="url(#hypG2)" opacity="0.8"/>
    <circle cx="360" cy="60" r="20" fill="url(#hypG2)" opacity="0.55"/>
    <circle cx="360" cy="110" r="20" fill="url(#hypG2)" opacity="0.55"/>
    <line x1="28" y1="80" x2="96" y2="50" stroke="#38f9d7" stroke-width="2" opacity="0.5"/>
    <line x1="28" y1="80" x2="96" y2="120" stroke="#38f9d7" stroke-width="2" opacity="0.5"/>
    <line x1="144" y1="55" x2="212" y2="75" stroke="#38f9d7" stroke-width="2" opacity="0.5"/>
    <line x1="144" y1="115" x2="212" y2="85" stroke="#38f9d7" stroke-width="2" opacity="0.5"/>
    <line x1="268" y1="80" x2="340" y2="65" stroke="#38f9d7" stroke-width="2" opacity="0.5"/>
    <line x1="268" y1="80" x2="340" y2="105" stroke="#38f9d7" stroke-width="2" opacity="0.5"/>
  </g>
  <!-- ChromaDB -->
  <rect x="880" y="200" width="180" height="100" rx="10" fill="url(#hypG1)" opacity="0.15" stroke="#667eea" stroke-width="2"/>
  <text x="970" y="245" text-anchor="middle" fill="#667eea" font-family="system-ui,sans-serif" font-size="16" font-weight="600">ChromaDB</text>
  <text x="970" y="272" text-anchor="middle" fill="#888" font-family="system-ui,sans-serif" font-size="13">store + retrieve</text>
  <path d="M820 250 L880 250" stroke="#667eea" stroke-width="2" opacity="0.4"/>
  <text x="600" y="480" text-anchor="middle" fill="#667eea" font-family="system-ui,sans-serif" font-size="20" opacity="0.65">Hypothesis Space · Agent Quality Axes</text>
</svg>
