<svg width="1200" height="630" viewBox="0 0 1200 630" xmlns="http://www.w3.org/2000/svg">
  <defs>
    <linearGradient id="nspG1" x1="0%" y1="0%" x2="100%" y2="0%">
      <stop offset="0%" style="stop-color:#667eea"/>
      <stop offset="100%" style="stop-color:#764ba2"/>
    </linearGradient>
    <linearGradient id="nspG2" x1="0%" y1="0%" x2="100%" y2="0%">
      <stop offset="0%" style="stop-color:#43e97b"/>
      <stop offset="100%" style="stop-color:#38f9d7"/>
    </linearGradient>
  </defs>
  <rect width="1200" height="630" fill="#fafbff"/>
  <!-- pipeline boxes -->
  <rect x="60" y="240" width="180" height="90" rx="12" fill="url(#nspG1)" opacity="0.2" stroke="url(#nspG1)" stroke-width="2"/>
  <text x="150" y="280" text-anchor="middle" fill="#667eea" font-family="system-ui,sans-serif" font-size="16" font-weight="600">LLM / VLM</text>
  <text x="150" y="305" text-anchor="middle" fill="#888" font-size="12">perception</text>
  <path d="M240 285 L310 285" stroke="#667eea" stroke-width="2" marker-end="url(#m)"/>
  <rect x="310" y="240" width="200" height="90" rx="12" fill="url(#nspG1)" opacity="0.15" stroke="#764ba2" stroke-width="2"/>
  <text x="410" y="278" text-anchor="middle" fill="#764ba2" font-family="monospace" font-size="15" font-weight="600">PDDL / STRIPS</text>
  <text x="410" y="305" text-anchor="middle" fill="#888" font-size="12">symbolic plan</text>
  <path d="M510 285 L580 285" stroke="#667eea" stroke-width="2"/>
  <rect x="580" y="240" width="160" height="90" rx="12" fill="url(#nspG2)" opacity="0.2" stroke="url(#nspG2)" stroke-width="2"/>
  <text x="660" y="280" text-anchor="middle" fill="#43e97b" font-family="system-ui,sans-serif" font-size="16" font-weight="600">Planner</text>
  <text x="660" y="305" text-anchor="middle" fill="#888" font-size="12">search</text>
  <path d="M740 285 L810 285" stroke="#43e97b" stroke-width="2"/>
  <rect x="810" y="240" width="160" height="90" rx="12" fill="url(#nspG2)" opacity="0.25" stroke="#fa709a" stroke-width="2"/>
  <text x="890" y="280" text-anchor="middle" fill="#fa709a" font-family="system-ui,sans-serif" font-size="16" font-weight="600">Critic</text>
  <text x="890" y="305" text-anchor="middle" fill="#888" font-size="12">verify / reject</text>
  <!-- feedback loop -->
  <path d="M890 330 Q890 420 410 420 Q150 420 150 330" fill="none" stroke="#fa709a" stroke-width="2" opacity="0.35" stroke-dasharray="8 6"/>
  <text x="600" y="480" text-anchor="middle" fill="#667eea" font-family="system-ui,sans-serif" font-size="20" opacity="0.65">Neurosymbolic Planning Pipeline</text>
</svg>
