<?xml version="1.0" encoding="UTF-8"?>
<svg width="1200" height="630" viewBox="0 0 1200 630" xmlns="http://www.w3.org/2000/svg">
  <defs>
    <linearGradient id="evg1" x1="0%" y1="0%" x2="100%" y2="100%">
      <stop offset="0%" style="stop-color:#667eea"/>
      <stop offset="100%" style="stop-color:#764ba2"/>
    </linearGradient>
    <linearGradient id="evg2" x1="0%" y1="0%" x2="100%" y2="0%">
      <stop offset="0%" style="stop-color:#43e97b"/>
      <stop offset="100%" style="stop-color:#38f9d7"/>
    </linearGradient>
    <linearGradient id="evg3" x1="0%" y1="100%" x2="100%" y2="0%">
      <stop offset="0%" style="stop-color:#fa709a"/>
      <stop offset="100%" style="stop-color:#fee140"/>
    </linearGradient>
  </defs>
  <rect width="1200" height="630" fill="#fafbff"/>
  <rect x="1" y="1" width="1198" height="628" rx="4" fill="none" stroke="#e4e6f0" stroke-width="2"/>

  <text x="600" y="58" text-anchor="middle" fill="#333" font-family="system-ui,sans-serif" font-size="30" font-weight="700">Evolution of Neural Models</text>
  <text x="600" y="92" text-anchor="middle" fill="#666" font-family="system-ui,sans-serif" font-size="15">Not a timeline  a branching tree</text>

  <!-- Semicircle tree arc -->
  <path d="M 200 420 A 400 400 0 0 1 1000 420" fill="none" stroke="url(#evg1)" stroke-width="4" opacity="0.5"/>
  <circle cx="600" cy="420" r="8" fill="#333"/>
  <line x1="600" y1="420" x2="280" y2="300" stroke="#43e97b" stroke-width="2"/>
  <line x1="600" y1="420" x2="450" y2="260" stroke="#667eea" stroke-width="2"/>
  <line x1="600" y1="420" x2="600" y2="240" stroke="#764ba2" stroke-width="2"/>
  <line x1="600" y1="420" x2="750" y2="260" stroke="#fa709a" stroke-width="2"/>
  <line x1="600" y1="420" x2="920" y2="300" stroke="#fee140" stroke-width="2"/>
  <circle cx="280" cy="300" r="14" fill="url(#evg2)"/>
  <circle cx="450" cy="260" r="14" fill="url(#evg1)"/>
  <circle cx="600" cy="240" r="14" fill="url(#evg1)"/>
  <circle cx="750" cy="260" r="14" fill="url(#evg3)"/>
  <circle cx="920" cy="300" r="14" fill="url(#evg3)"/>

  <!-- Influence graph mini -->
  <rect x="120" y="130" width="200" height="120" rx="10" fill="#fff" stroke="#e4e6f0" stroke-width="1.5"/>
  <text x="220" y="155" text-anchor="middle" fill="#667eea" font-family="system-ui,sans-serif" font-size="12" font-weight="600">Influence graph</text>
  <circle cx="160" cy="200" r="10" fill="#43e97b"/>
  <circle cx="220" cy="185" r="10" fill="#667eea"/>
  <circle cx="280" cy="200" r="10" fill="#fa709a"/>
  <path d="M170 200 L208 188" stroke="#888" marker-end="url(#arr)"/>
  <path d="M230 188 L268 198" stroke="#888"/>

  <!-- Time clusters -->
  <rect x="880" y="130" width="200" height="120" rx="10" fill="#fff" stroke="#e4e6f0" stroke-width="1.5"/>
  <text x="980" y="155" text-anchor="middle" fill="#667eea" font-family="system-ui,sans-serif" font-size="12" font-weight="600">Time-ordered clusters</text>
  <rect x="910" y="175" width="35" height="55" rx="4" fill="#43e97b" opacity="0.35"/>
  <rect x="955" y="190" width="35" height="40" rx="4" fill="#667eea" opacity="0.35"/>
  <rect x="1000" y="205" width="35" height="25" rx="4" fill="#fa709a" opacity="0.35"/>
  <text x="980" y="248" text-anchor="middle" fill="#888" font-family="monospace" font-size="10">1957 ’ 2023</text>

  <text x="600" y="560" text-anchor="middle" fill="#667eea" font-family="system-ui,sans-serif" font-size="14" font-weight="600">semicircle tree | borrow graph | PCA clusters</text>
</svg>
