<svg width="1200" height="630" viewBox="0 0 1200 630" xmlns="http://www.w3.org/2000/svg">
  <defs>
    <linearGradient id="bgGrad" x1="0%" y1="0%" x2="100%" y2="100%">
      <stop offset="0%" style="stop-color:#0c1222"/>
      <stop offset="100%" style="stop-color:#1a1f3a"/>
    </linearGradient>
    <linearGradient id="phaseGrad" x1="0%" y1="0%" x2="100%" y2="100%">
      <stop offset="0%" style="stop-color:#f59e0b"/>
      <stop offset="100%" style="stop-color:#ef4444"/>
    </linearGradient>
    <linearGradient id="ampGrad" x1="0%" y1="0%" x2="100%" y2="0%">
      <stop offset="0%" style="stop-color:#22d3ee"/>
      <stop offset="100%" style="stop-color:#6366f1"/>
    </linearGradient>
    <linearGradient id="syncGrad" x1="0%" y1="0%" x2="100%" y2="100%">
      <stop offset="0%" style="stop-color:#34d399"/>
      <stop offset="100%" style="stop-color:#10b981"/>
    </linearGradient>
    <filter id="glow">
      <feGaussianBlur stdDeviation="4" result="coloredBlur"/>
      <feMerge>
        <feMergeNode in="coloredBlur"/>
        <feMergeNode in="SourceGraphic"/>
      </feMerge>
    </filter>
    <marker id="arrow" markerWidth="8" markerHeight="8" refX="6" refY="3" orient="auto">
      <path d="M0,0 L6,3 L0,6 Z" fill="#34d399"/>
    </marker>
  </defs>

  <rect width="1200" height="630" fill="url(#bgGrad)"/>

  <!-- Title -->
  <text x="600" y="55" fill="#e2e8f0" font-family="system-ui,sans-serif" font-size="28" font-weight="700" text-anchor="middle">AF8;;OB>@=K5 =59@>A5B8</text>
  <text x="600" y="85" fill="#94a3b8" font-family="system-ui,sans-serif" font-size="14" text-anchor="middle">Kuramoto · Hyperphasors · Phase Locking · SRA</text>

  <!-- Complex plane / phasor -->
  <g transform="translate(120, 130)">
    <text x="100" y="0" fill="#94a3b8" font-family="system-ui,sans-serif" font-size="13" text-anchor="middle">Hyperphasor z = r·e^{i¸}</text>
    <circle cx="100" cy="110" r="80" fill="none" stroke="#334155" stroke-width="1.5"/>
    <line x1="100" y1="110" x2="100" y2="30" stroke="#475569" stroke-width="1" stroke-dasharray="4"/>
    <line x1="20" y1="110" x2="180" y2="110" stroke="#475569" stroke-width="1" stroke-dasharray="4"/>
    <line x1="100" y1="110" x2="155" y2="55" stroke="url(#phaseGrad)" stroke-width="3" marker-end="url(#arrow)"/>
    <circle cx="155" cy="55" r="8" fill="url(#phaseGrad)" filter="url(#glow)"/>
    <text x="168" y="52" fill="#fbbf24" font-family="system-ui,sans-serif" font-size="12">¸</text>
    <text x="125" y="95" fill="#22d3ee" font-family="system-ui,sans-serif" font-size="12">r</text>
    <text x="100" y="210" fill="#64748b" font-family="system-ui,sans-serif" font-size="11" text-anchor="middle">0<?;8BC40 + D070</text>
  </g>

  <!-- Kuramoto sync -->
  <g transform="translate(380, 120)">
    <text x="140" y="0" fill="#94a3b8" font-family="system-ui,sans-serif" font-size="13" text-anchor="middle">!8=E@>=870F8O C@0<>B></text>
  </g>
  <g transform="translate(380, 150)">
    <circle cx="60" cy="80" r="22" fill="url(#ampGrad)" opacity="0.7" filter="url(#glow)"/>
    <circle cx="140" cy="50" r="22" fill="url(#ampGrad)" opacity="0.7" filter="url(#glow)"/>
    <circle cx="220" cy="80" r="22" fill="url(#ampGrad)" opacity="0.7" filter="url(#glow)"/>
    <circle cx="180" cy="140" r="22" fill="url(#ampGrad)" opacity="0.7" filter="url(#glow)"/>
    <circle cx="100" cy="140" r="22" fill="url(#ampGrad)" opacity="0.7" filter="url(#glow)"/>
    <path d="M60,80 Q100,65 140,50" stroke="#34d399" stroke-width="1.5" fill="none" opacity="0.6"/>
    <path d="M140,50 Q180,65 220,80" stroke="#34d399" stroke-width="1.5" fill="none" opacity="0.6"/>
    <path d="M220,80 Q200,110 180,140" stroke="#34d399" stroke-width="1.5" fill="none" opacity="0.6"/>
    <path d="M180,140 Q140,150 100,140" stroke="#34d399" stroke-width="1.5" fill="none" opacity="0.6"/>
    <path d="M100,140 Q80,110 60,80" stroke="#34d399" stroke-width="1.5" fill="none" opacity="0.6"/>
    <path d="M60,80 Q140,100 220,80" stroke="#34d399" stroke-width="2" fill="none" opacity="0.8"/>
    <text x="140" y="185" fill="#64748b" font-family="system-ui,sans-serif" font-size="11" text-anchor="middle">A2O70==K5 >AF8;;OB>@K ’ phase lock</text>
  </g>

  <!-- SRA wave propagation -->
  <g transform="translate(680, 120)">
    <text x="200" y="0" fill="#94a3b8" font-family="system-ui,sans-serif" font-size="13" text-anchor="middle">Spectral Resonance Attention</text>
    <path d="M 20 120 Q 80 60 140 100 T 260 90 T 380 110" stroke="url(#ampGrad)" stroke-width="2.5" fill="none" opacity="0.9"/>
    <path d="M 20 150 Q 80 200 140 160 T 260 170 T 380 140" stroke="url(#phaseGrad)" stroke-width="2" fill="none" opacity="0.7"/>
    <path d="M 20 180 Q 80 130 140 170 T 260 150 T 380 165" stroke="#34d399" stroke-width="1.5" fill="none" opacity="0.5"/>
    <text x="200" y="220" fill="#64748b" font-family="system-ui,sans-serif" font-size="11" text-anchor="middle">2>;=>2>5 @0A?@>AB@0=5=85 · O(n) ?0<OBL</text>
  </g>

  <!-- Comparison bar -->
  <g transform="translate(120, 380)">
    <text x="480" y="0" fill="#94a3b8" font-family="system-ui,sans-serif" font-size="13" text-anchor="middle">!@02=5=85 ?>4E>4>2</text>
    <text x="0" y="40" fill="#64748b" font-family="system-ui,sans-serif" font-size="11">Softmax Attention</text>
    <rect x="140" y="28" width="320" height="18" rx="4" fill="#475569" opacity="0.5"/>
    <text x="470" y="42" fill="#94a3b8" font-family="system-ui,sans-serif" font-size="10">O(n˛)</text>

    <text x="0" y="75" fill="#64748b" font-family="system-ui,sans-serif" font-size="11">SSA / KoPE / SRA</text>
    <rect x="140" y="63" width="180" height="18" rx="4" fill="url(#syncGrad)" opacity="0.8"/>
    <text x="330" y="77" fill="#34d399" font-family="system-ui,sans-serif" font-size="10">O(n) · @57>=0=A</text>

    <text x="0" y="110" fill="#64748b" font-family="system-ui,sans-serif" font-size="11">COLM / PRISM (B5:AB)</text>
    <rect x="140" y="98" width="200" height="18" rx="4" fill="url(#phaseGrad)" opacity="0.7"/>
    <text x="350" y="112" fill="#fbbf24" font-family="system-ui,sans-serif" font-size="10">:><?;5:A=K5 >AF8;;OB>@K</text>
  </g>

  <!-- Active inference loop -->
  <g transform="translate(720, 380)">
    <text x="180" y="0" fill="#94a3b8" font-family="system-ui,sans-serif" font-size="13" text-anchor="middle">Active Inference</text>
    <rect x="60" y="30" width="100" height="40" rx="8" fill="#1e293b" stroke="#6366f1" stroke-width="1.5"/>
    <text x="110" y="55" fill="#a5b4fc" font-family="system-ui,sans-serif" font-size="11" text-anchor="middle">A5=A>@</text>
    <path d="M 160 50 L 200 50" stroke="#6366f1" stroke-width="2" marker-end="url(#arrow)"/>
    <rect x="200" y="30" width="100" height="40" rx="8" fill="#1e293b" stroke="#34d399" stroke-width="1.5"/>
    <text x="250" y="55" fill="#6ee7b7" font-family="system-ui,sans-serif" font-size="11" text-anchor="middle">phase lock</text>
    <path d="M 250 70 Q 250 110 110 110 Q 60 110 60 70" stroke="#64748b" stroke-width="1.5" fill="none" stroke-dasharray="4"/>
    <text x="180" y="130" fill="#64748b" font-family="system-ui,sans-serif" font-size="10" text-anchor="middle"><8=8<870F8O free energy</text>
  </g>

  <text x="600" y="600" fill="#475569" font-family="system-ui,sans-serif" font-size="11" text-anchor="middle">binding · object discovery · temporal processing · text generation</text>
</svg>
