<?xml version="1.0" encoding="UTF-8"?>
<svg width="1200" height="630" viewBox="0 0 1200 630" xmlns="http://www.w3.org/2000/svg">
  <defs>
    <linearGradient id="puG1" x1="0%" y1="0%" x2="100%" y2="100%">
      <stop offset="0%" style="stop-color:#667eea"/>
      <stop offset="100%" style="stop-color:#764ba2"/>
    </linearGradient>
    <linearGradient id="puG2" x1="0%" y1="0%" x2="100%" y2="0%">
      <stop offset="0%" style="stop-color:#43e97b"/>
      <stop offset="100%" style="stop-color:#38f9d7"/>
    </linearGradient>
    <linearGradient id="puG3" x1="0%" y1="0%" x2="100%" y2="0%">
      <stop offset="0%" style="stop-color:#fa709a"/>
      <stop offset="100%" style="stop-color:#fee140"/>
    </linearGradient>
    <linearGradient id="puSpectrum" x1="0%" y1="0%" x2="100%" y2="0%">
      <stop offset="0%" style="stop-color:#667eea"/>
      <stop offset="33%" style="stop-color:#43e97b"/>
      <stop offset="66%" style="stop-color:#fa709a"/>
      <stop offset="100%" style="stop-color:#764ba2"/>
    </linearGradient>
  </defs>
  <rect width="1200" height="630" fill="#fafbff"/>
  <rect x="1" y="1" width="1198" height="628" rx="4" fill="none" stroke="#e4e6f0" stroke-width="2"/>
  <circle cx="150" cy="520" r="90" fill="url(#puG1)" opacity="0.1"/>
  <circle cx="1050" cy="110" r="80" fill="url(#puG3)" opacity="0.1"/>

  <text x="600" y="58" text-anchor="middle" fill="#333" font-family="system-ui,sans-serif" font-size="32" font-weight="700">5@>OB=>ABL 8 =5>?@545;Q==>ABL</text>
  <text x="600" y="92" text-anchor="middle" fill="#666" font-family="system-ui,sans-serif" font-size="16">>B 45@520 A>1KB89 4> O7K:>2>9 <>45;8</text>

  <!-- Aleatoric vs Epistemic bands -->
  <rect x="80" y="130" width="520" height="52" rx="10" fill="url(#puG2)" opacity="0.18" stroke="#43e97b" stroke-width="2"/>
  <text x="100" y="162" fill="#2d8a5e" font-family="system-ui,sans-serif" font-size="15" font-weight="600">;50B>@=0O  HC< 2 40==KE</text>
  <text x="340" y="162" fill="#666" font-family="system-ui,sans-serif" font-size="13">(irreducible)</text>

  <rect x="620" y="130" width="500" height="52" rx="10" fill="url(#puG3)" opacity="0.18" stroke="#fa709a" stroke-width="2"/>
  <text x="640" y="162" fill="#c44d6e" font-family="system-ui,sans-serif" font-size="15" font-weight="600">-?8AB5<8G5A:0O  =57=0=85 <>45;8</text>
  <text x="920" y="162" fill="#666" font-family="system-ui,sans-serif" font-size="13">(reducible)</text>

  <!-- Spectrum arrow -->
  <rect x="100" y="230" width="1000" height="10" rx="5" fill="url(#puSpectrum)" opacity="0.5"/>
  <polygon points="1100,235 1085,225 1085,245" fill="#764ba2"/>

  <!-- Stage 1: Event tree -->
  <g transform="translate(120,280)">
    <rect x="0" y="0" width="200" height="200" rx="12" fill="white" stroke="url(#puG1)" stroke-width="2"/>
    <text x="100" y="32" text-anchor="middle" fill="#667eea" font-family="system-ui,sans-serif" font-size="14" font-weight="600">5@52> A>1KB89</text>
    <circle cx="100" cy="70" r="14" fill="#667eea" opacity="0.8"/>
    <line x1="100" y1="84" x2="60" y2="120" stroke="#667eea" stroke-width="2"/>
    <line x1="100" y1="84" x2="140" y2="120" stroke="#667eea" stroke-width="2"/>
    <circle cx="60" cy="130" r="10" fill="#764ba2" opacity="0.7"/>
    <circle cx="140" cy="130" r="10" fill="#764ba2" opacity="0.7"/>
    <line x1="60" y1="140" x2="40" y2="170" stroke="#667eea" stroke-width="1.5"/>
    <line x1="60" y1="140" x2="80" y2="170" stroke="#667eea" stroke-width="1.5"/>
    <circle cx="40" cy="178" r="7" fill="#43e97b"/>
    <circle cx="80" cy="178" r="7" fill="#fa709a"/>
    <text x="100" y="210" text-anchor="middle" fill="#888" font-family="system-ui,sans-serif" font-size="11">P(A), P(B|A)</text>
  </g>

  <!-- Stage 2: Regression -->
  <g transform="translate(360,280)">
    <rect x="0" y="0" width="200" height="200" rx="12" fill="white" stroke="url(#puG2)" stroke-width="2"/>
    <text x="100" y="32" text-anchor="middle" fill="#2d8a5e" font-family="system-ui,sans-serif" font-size="14" font-weight="600"> 53@5AA8O</text>
    <line x1="30" y1="170" x2="170" y2="170" stroke="#ccc" stroke-width="1"/>
    <line x1="30" y1="170" x2="30" y2="60" stroke="#ccc" stroke-width="1"/>
    <line x1="40" y1="140" x2="160" y2="80" stroke="#43e97b" stroke-width="2.5"/>
    <ellipse cx="100" cy="110" rx="70" ry="35" fill="#43e97b" opacity="0.12" stroke="#43e97b" stroke-width="1.5" stroke-dasharray="4 3"/>
    <circle cx="55" cy="125" r="4" fill="#667eea" opacity="0.6"/>
    <circle cx="80" cy="105" r="4" fill="#667eea" opacity="0.6"/>
    <circle cx="110" cy="95" r="4" fill="#667eea" opacity="0.6"/>
    <circle cx="140" cy="88" r="4" fill="#667eea" opacity="0.6"/>
    <text x="100" y="210" text-anchor="middle" fill="#888" font-family="system-ui,sans-serif" font-size="11">8=B5@20; ?@>3=>70</text>
  </g>

  <!-- Stage 3: Ensemble -->
  <g transform="translate(600,280)">
    <rect x="0" y="0" width="200" height="200" rx="12" fill="white" stroke="url(#puG3)" stroke-width="2"/>
    <text x="100" y="32" text-anchor="middle" fill="#c44d6e" font-family="system-ui,sans-serif" font-size="14" font-weight="600">=A0<1;L / MC</text>
    <rect x="35" y="55" width="40" height="50" rx="6" fill="#fa709a" opacity="0.35"/>
    <rect x="80" y="70" width="40" height="50" rx="6" fill="#fee140" opacity="0.35"/>
    <rect x="125" y="60" width="40" height="50" rx="6" fill="#667eea" opacity="0.35"/>
    <path d="M 55,105 Q 100,85 145,110" fill="none" stroke="#c44d6e" stroke-width="2"/>
    <path d="M 55,105 Q 100,120 145,110" fill="none" stroke="#c44d6e" stroke-width="1.5" stroke-dasharray="5 4" opacity="0.6"/>
    <text x="100" y="210" text-anchor="middle" fill="#888" font-family="system-ui,sans-serif" font-size="11">48A?5@A8O ?@>3=>7>2</text>
  </g>

  <!-- Stage 4: LLM -->
  <g transform="translate(840,280)">
    <rect x="0" y="0" width="240" height="200" rx="12" fill="white" stroke="url(#puG1)" stroke-width="2"/>
    <text x="120" y="32" text-anchor="middle" fill="#764ba2" font-family="system-ui,sans-serif" font-size="14" font-weight="600">/7K:>20O <>45;L</text>
    <rect x="25" y="55" width="190" height="28" rx="6" fill="#667eea" opacity="0.15" stroke="#667eea" stroke-width="1"/>
    <text x="120" y="74" text-anchor="middle" fill="#667eea" font-family="monospace" font-size="12">P(token | context)</text>
    <rect x="25" y="95" width="55" height="22" rx="4" fill="#43e97b" opacity="0.5"/>
    <rect x="85" y="95" width="40" height="22" rx="4" fill="#fa709a" opacity="0.4"/>
    <rect x="130" y="95" width="30" height="22" rx="4" fill="#fee140" opacity="0.4"/>
    <rect x="165" y="95" width="50" height="22" rx="4" fill="#667eea" opacity="0.3"/>
    <text x="120" y="145" text-anchor="middle" fill="#888" font-family="system-ui,sans-serif" font-size="11">softmax ` :0;81@>2:0</text>
    <text x="120" y="165" text-anchor="middle" fill="#888" font-family="system-ui,sans-serif" font-size="11">` M?8AB5<8G5A:0O UQ</text>
  </g>

  <!-- Labels under spectrum -->
  <text x="220" y="520" text-anchor="middle" fill="#667eea" font-family="system-ui,sans-serif" font-size="13" font-weight="600">O2=0O</text>
  <text x="460" y="520" text-anchor="middle" fill="#2d8a5e" font-family="system-ui,sans-serif" font-size="13" font-weight="600">8=B5@20;K</text>
  <text x="700" y="520" text-anchor="middle" fill="#c44d6e" font-family="system-ui,sans-serif" font-size="13" font-weight="600">AM<?;8@>20=85</text>
  <text x="960" y="520" text-anchor="middle" fill="#764ba2" font-family="system-ui,sans-serif" font-size="13" font-weight="600">?>A;54>20B5;L=>ABL</text>
</svg>
